<svg width="550" height="550" viewBox="0 0 550 550" fill="none" xmlns="http://www.w3.org/2000/svg">
<circle cx="275" cy="275" r="275" fill="white"/>
<path fill-rule="evenodd" clip-rule="evenodd" d="M122 77.2706C62.9871 123 25 194.564 25 275C25 355.436 62.9871 427 122 472.729L122 77.2706ZM190 510.179C216.534 519.771 245.157 525 275 525C413.071 525 525 413.071 525 275C525 136.929 413.071 25 275 25C245.157 25 216.534 30.2292 190 39.8213L190 510.179ZM275 300C288.807 300 300 288.807 300 275C300 261.193 288.807 250 275 250C261.193 250 250 261.193 250 275C250 288.807 261.193 300 275 300ZM401.999 143.291C402.589 141.112 404.567 139.6 406.824 139.6H463.225C466.513 139.6 468.906 142.718 468.055 145.894L393.676 423.48C393.09 425.666 391.109 427.186 388.846 427.186H331.537C328.243 427.186 325.849 424.056 326.711 420.877L401.999 143.291Z" fill="url(#paint0_radial_46_15)"/>
<defs>
<radialGradient id="paint0_radial_46_15" cx="0" cy="0" r="1" gradientUnits="userSpaceOnUse" gradientTransform="translate(377.5 126) rotate(120.82) scale(443.068)">
<stop stop-color="#8BA5FF"/>
<stop offset="1" stop-color="#2E3E76"/>
</radialGradient>
</defs>
</svg>
