<svg width="121" height="40" viewBox="0 0 283 93" fill="none" xmlns="http://www.w3.org/2000/svg">
<path d="M0 47.488V2.68799H8.576L35.008 34.944H30.848V2.68799H41.088V47.488H32.576L6.08 15.232H10.24V47.488H0Z" fill="black"/>
<path d="M72.1035 47.488V40.768L71.4635 39.296V27.264C71.4635 25.1307 70.8022 23.4667 69.4795 22.272C68.1995 21.0773 66.2155 20.48 63.5275 20.48C61.6928 20.48 59.8795 20.7787 58.0875 21.376C56.3382 21.9307 54.8448 22.6987 53.6075 23.68L50.0235 16.704C51.9008 15.3813 54.1622 14.3573 56.8075 13.632C59.4528 12.9067 62.1408 12.544 64.8715 12.544C70.1195 12.544 74.1942 13.7813 77.0955 16.256C79.9968 18.7307 81.4475 22.592 81.4475 27.84V47.488H72.1035ZM61.6075 48C58.9195 48 56.6155 47.552 54.6955 46.656C52.7755 45.7173 51.3035 44.4587 50.2795 42.88C49.2555 41.3013 48.7435 39.5307 48.7435 37.568C48.7435 35.52 49.2342 33.728 50.2155 32.192C51.2395 30.656 52.8395 29.4613 55.0155 28.608C57.1915 27.712 60.0288 27.264 63.5275 27.264H72.6795V33.088H64.6155C62.2688 33.088 60.6475 33.472 59.7515 34.24C58.8982 35.008 58.4715 35.968 58.4715 37.12C58.4715 38.4 58.9622 39.424 59.9435 40.192C60.9675 40.9173 62.3542 41.28 64.1035 41.28C65.7675 41.28 67.2608 40.896 68.5835 40.128C69.9062 39.3173 70.8662 38.144 71.4635 36.608L72.9995 41.216C72.2742 43.4347 70.9515 45.12 69.0315 46.272C67.1115 47.424 64.6368 48 61.6075 48Z" fill="black"/>
<path d="M104.563 48C100.51 48 97.3528 46.976 95.0915 44.928C92.8302 42.8373 91.6995 39.744 91.6995 35.648V5.43999H101.684V35.52C101.684 36.9707 102.068 38.1013 102.836 38.912C103.604 39.68 104.649 40.064 105.971 40.064C107.55 40.064 114.5 37.5 118.812 30.96L121.5 38C118.5 43.5 110.43 47.104 108.979 47.488C107.571 47.8293 106.099 48 104.563 48ZM86.3875 21.504V13.824H110.259V21.504H86.3875Z" fill="black"/>
<path d="M222.928 12C225.659 12 228.091 12.5547 230.224 13.664C232.4 14.7307 234.107 16.3947 235.344 18.656C236.581 20.8747 237.2 23.7333 237.2 27.232V46.944H227.216V28.768C227.216 25.9947 226.597 23.9467 225.36 22.624C224.165 21.3013 222.459 20.64 220.24 20.64C218.661 20.64 217.232 20.9813 215.952 21.664C214.715 22.304 213.733 23.3067 213.008 24.672C212.325 26.0373 211.984 27.7867 211.984 29.92V46.944H202V12.512H211.536V22.048L209.744 19.168C210.981 16.864 212.752 15.0933 215.056 13.856C217.36 12.6187 219.984 12 222.928 12Z" fill="black"/>
<path d="M184.36 63.4001V56.6801L183.72 55.2081V43.1761C183.72 41.0427 183.059 39.3787 181.736 38.1841C180.456 36.9894 178.472 36.3921 175.784 36.3921C173.949 36.3921 172.136 36.6907 170.344 37.2881C168.595 37.8427 167.101 38.6107 165.864 39.5921L162.28 32.6161C164.157 31.2934 166.419 30.2694 169.064 29.5441C171.709 28.8187 174.397 28.4561 177.128 28.4561C182.376 28.4561 186.451 29.6934 189.352 32.1681C192.253 34.6427 193.704 38.5041 193.704 43.7521V63.4001H184.36ZM173.864 63.9121C171.176 63.9121 168.872 63.4641 166.952 62.5681C165.032 61.6294 163.56 60.3707 162.536 58.7921C161.512 57.2134 161 55.4427 161 53.4801C161 51.4321 161.491 49.6401 162.472 48.1041C163.496 46.5681 165.096 45.3734 167.272 44.5201C169.448 43.6241 172.285 43.1761 175.784 43.1761H184.936V49.0001H176.872C174.525 49.0001 172.904 49.3841 172.008 50.1521C171.155 50.9201 170.728 51.8801 170.728 53.0321C170.728 54.3121 171.219 55.3361 172.2 56.1041C173.224 56.8294 174.611 57.1921 176.36 57.1921C178.024 57.1921 179.517 56.8081 180.84 56.0401C182.163 55.2294 183.123 54.0561 183.72 52.5201L185.256 57.1281C184.531 59.3467 183.208 61.0321 181.288 62.1841C179.368 63.3361 176.893 63.9121 173.864 63.9121Z" fill="black"/>
<path d="M138.928 12.544C141.659 12.544 144.091 13.0987 146.224 14.208C148.4 15.2747 150.107 16.9387 151.344 19.2C152.581 21.4187 153.2 24.2773 153.2 27.776V47.488H143.216V29.312C143.216 26.5387 142.597 24.4907 141.36 23.168C140.165 21.8453 138.459 21.184 136.24 21.184C134.661 21.184 133.232 21.5253 131.952 22.208C130.715 22.848 129.733 23.8507 129.008 25.216C128.325 26.5813 127.984 28.3307 127.984 30.464V47.488H118V0H127.984V22.592L125.744 19.712C126.981 17.408 128.752 15.6373 131.056 14.4C133.36 13.1627 135.984 12.544 138.928 12.544Z" fill="black"/>
<path d="M0 91.4748V46.6748H10.2437V82.9868L40.5 83.0268V91.4748H0Z" fill="black"/>
<path d="M237.86 91.4774C233.935 91.4774 230.479 90.7094 227.492 89.1734C224.548 87.6374 222.265 85.5468 220.644 82.9014C219.023 80.2134 218.212 77.1628 218.212 73.7495C218.212 70.2935 219.001 67.2428 220.58 64.5975C222.201 61.9095 224.399 59.8188 227.172 58.3255C229.945 56.7895 233.081 56.0215 236.58 56.0215C239.951 56.0215 242.98 56.7468 245.668 58.1975C248.399 59.6055 250.553 61.6535 252.132 64.3415C253.711 66.9868 254.5 70.1655 254.5 73.8774C254.5 74.2614 254.479 74.7094 254.436 75.2214C254.393 75.6908 254.351 76.1388 254.308 76.5654H226.34V70.7414H249.06L245.22 72.4694C245.22 70.6774 244.857 69.1201 244.132 67.7975C243.407 66.4748 242.404 65.4508 241.124 64.7255C239.844 63.9575 238.351 63.5735 236.644 63.5735C234.937 63.5735 233.423 63.9575 232.1 64.7255C230.82 65.4508 229.817 66.4961 229.092 67.8615C228.367 69.1841 228.004 70.7628 228.004 72.5975V74.1334C228.004 76.0108 228.409 77.6748 229.22 79.1254C230.073 80.5334 231.247 81.6214 232.74 82.3894C234.276 83.1148 236.068 83.4774 238.116 83.4774C239.951 83.4774 241.551 83.2001 242.916 82.6454C244.324 82.0908 245.604 81.2588 246.756 80.1494L252.068 85.9094C250.489 87.7014 248.505 89.0881 246.116 90.0694C243.727 91.0081 240.975 91.4774 237.86 91.4774Z" fill="black"/>
<path d="M202.016 92.5002V45.0122H212V92.5002H202.016Z" fill="black"/>
<path d="M138.096 57C140.827 57 143.237 57.5547 145.328 58.664C147.461 59.7307 149.125 61.3947 150.32 63.656C151.557 65.8747 152.176 68.7333 152.176 72.232V91.944H142.192V73.768C142.192 70.9947 141.616 68.9467 140.464 67.624C139.312 66.3013 137.691 65.64 135.6 65.64C134.149 65.64 132.848 65.9813 131.696 66.664C130.544 67.304 129.648 68.2853 129.008 69.608C128.368 70.9307 128.048 72.616 128.048 74.664V91.944H118.064V73.768C118.064 70.9947 117.488 68.9467 116.336 67.624C115.227 66.3013 113.627 65.64 111.536 65.64C110.085 65.64 108.784 65.9813 107.632 66.664C106.48 67.304 105.584 68.2853 104.944 69.608C104.304 70.9307 103.984 72.616 103.984 74.664V91.944H94V57.512H103.536V66.92L101.744 64.168C102.939 61.8213 104.624 60.0507 106.8 58.856C109.019 57.6187 111.536 57 114.352 57C117.509 57 120.261 57.8107 122.608 59.432C124.997 61.0107 126.576 63.4427 127.344 66.728L123.824 65.768C124.976 63.08 126.811 60.9467 129.328 59.368C131.888 57.7893 134.811 57 138.096 57Z" fill="black"/>
<path d="M118 84.488V37H127.984V84.488H118Z" fill="black"/>
<path d="M59.3441 56.5121L59.3441 63.2321L59.9841 64.7041L59.9841 76.7361C59.9841 78.8694 60.6454 80.5334 61.9681 81.7281C63.2481 82.9227 65.2321 83.5201 67.9201 83.5201C69.7548 83.5201 71.5681 83.2214 73.3601 82.6241C75.1094 82.0694 76.6028 81.3014 77.8401 80.3201L81.4241 87.2961C79.5468 88.6187 77.2854 89.6427 74.6401 90.3681C71.9948 91.0934 69.3068 91.4561 66.5761 91.4561C61.3281 91.4561 57.2534 90.2187 54.3521 87.7441C51.4508 85.2694 50.0001 81.4081 50.0001 76.1601L50.0001 56.5121L59.3441 56.5121ZM69.8401 56.0001C72.5281 56.0001 74.8321 56.4481 76.7521 57.3441C78.6721 58.2827 80.1441 59.5414 81.1681 61.1201C82.1921 62.6987 82.7041 64.4694 82.7041 66.4321C82.7041 68.4801 82.2134 70.2721 81.2321 71.8081C80.2081 73.3441 78.6081 74.5387 76.4321 75.3921C74.2561 76.2881 71.4188 76.7361 67.9201 76.7361L58.7681 76.7361L58.7681 70.9121L66.8321 70.9121C69.1788 70.9121 70.8001 70.5281 71.6961 69.7601C72.5494 68.9921 72.9761 68.0321 72.9761 66.8801C72.9761 65.6001 72.4855 64.5761 71.5041 63.8081C70.4801 63.0827 69.0934 62.7201 67.3441 62.7201C65.6801 62.7201 64.1868 63.1041 62.8641 63.8721C61.5414 64.6827 60.5814 65.8561 59.9841 67.3921L58.4481 62.7841C59.1735 60.5654 60.4961 58.8801 62.4161 57.7281C64.3361 56.5761 66.8108 56.0001 69.8401 56.0001Z" fill="black"/>
<path d="M48 52H84" stroke="black" stroke-width="2" stroke-linecap="round"/>
<path d="M157 91H197" stroke="black" stroke-width="2" stroke-linecap="round"/>
<path d="M157 1H197" stroke="black" stroke-width="2" stroke-linecap="round"/>
<path fill-rule="evenodd" clip-rule="evenodd" d="M184.936 92H193.704V88.2081C193.704 82.9601 192.254 79.0988 189.352 76.6241C186.451 74.1494 182.376 72.9121 177.128 72.9121C174.398 72.9121 171.71 73.2748 169.064 74.0001C166.419 74.7254 164.158 75.7494 162.28 77.0721L165.864 84.0481C167.102 83.0668 168.595 82.2988 170.344 81.7441C172.136 81.1468 173.95 80.8481 175.784 80.8481C178.472 80.8481 180.456 81.4454 181.736 82.6401C183.059 83.8348 183.72 85.4988 183.72 87.6321H175.784C172.286 87.6321 169.448 88.0801 167.272 88.9761C165.368 89.7228 163.905 90.7307 162.883 92H183.72H184.936Z" fill="black"/>
<path fill-rule="evenodd" clip-rule="evenodd" d="M184.36 14.6654V18.944H193.704V0H184.936H183.72H167.43C167.377 0.0210724 167.324 0.0424061 167.272 0.0639992C165.096 0.917334 163.496 2.112 162.472 3.648C161.491 5.184 161 6.976 161 9.024C161 10.9867 161.512 12.7573 162.536 14.336C163.56 15.9147 165.032 17.1733 166.952 18.112C168.872 19.008 171.176 19.456 173.864 19.456C176.893 19.456 179.368 18.88 181.288 17.728C182.584 16.9502 183.608 15.9294 184.36 14.6654ZM183.72 8.064V4.544H176.872C174.525 4.544 172.904 4.928 172.008 5.696C171.155 6.464 170.728 7.424 170.728 8.576C170.728 9.856 171.219 10.88 172.2 11.648C173.224 12.3733 174.611 12.736 176.36 12.736C178.024 12.736 179.517 12.352 180.84 11.584C182.163 10.7733 183.123 9.6 183.72 8.064Z" fill="black"/>
<circle cx="275" cy="84" r="8" fill="black"/>
</svg>
